/vscmnt/brussel_pixiu_data/_data_brussel/112/vsc11236/PredSimResults/SUBJ06opt3D/weighted-LRposFixed/trackIG/worker_02.mot
version=1
nRows=6
nColumns=50
inDegrees=yes
endheader
                time	         pelvis_tilt	         pelvis_list	     pelvis_rotation	           pelvis_tx	           pelvis_ty	           pelvis_tz	       hip_flexion_r	     hip_adduction_r	      hip_rotation_r	        knee_angle_r	       ankle_angle_r	         mtp_angle_r	       hip_flexion_l	     hip_adduction_l	      hip_rotation_l	        knee_angle_l	       ankle_angle_l	         mtp_angle_l	    lumbar_extension	      lumbar_bending	     lumbar_rotation	 ercspn_r/activation	 intobl_r/activation	 extobl_r/activation	    abd_r/activation	    add_r/activation	hamstrings_r/activation	bifemsh_r/activation	glut_max_r/activation	iliopsoas_r/activation	rect_fem_r/activation	  vasti_r/activation	gastroc_r/activation	 soleus_r/activation	tib_ant_r/activation	 ercspn_l/activation	 intobl_l/activation	 extobl_l/activation	    abd_l/activation	    add_l/activation	hamstrings_l/activation	bifemsh_l/activation	glut_max_l/activation	iliopsoas_l/activation	rect_fem_l/activation	  vasti_l/activation	gastroc_l/activation	 soleus_l/activation	tib_ant_l/activation	
          0.61543874	         -5.84252333	          1.02605795	         -4.54495576	          0.68313700	          0.93091934	          0.01131696	         -9.92498415	         -0.74281274	         -6.29438830	        -10.52506534	          9.54982101	         31.77831113	         31.82519417	         -1.05200785	         -7.07469481	         -7.71381171	          0.20857135	          0.22423982	         -5.52016914	          0.34978881	          7.91564116	          0.11896258	          0.00999999	          0.00999999	          0.09385919	          0.01000001	          0.01000000	          0.25641629	          0.01442390	          0.59295787	          0.01750335	          0.00999999	          0.24896596	          0.39251922	          0.02542133	          0.19267220	          0.17363254	          0.01000000	          0.00999999	          0.28428418	          0.06272850	          0.09861223	          0.01489306	          0.12491867	          0.01186248	          0.00999999	          0.01000001	          0.00999999	          0.51096109	
          0.62774751	         -5.94636249	          0.96900455	         -4.57643978	          0.69956715	          0.92901326	          0.01049508	        -10.36847559	         -0.85194563	         -6.68875927	        -11.32213203	          8.67154292	         33.63367073	         32.09542640	         -0.92162445	         -7.01159562	         -9.54527441	         -0.06449082	          0.22560538	         -5.19430563	          0.00683322	          8.43818971	          0.16760293	          0.00999999	          0.00999999	          0.07788199	          0.01000002	          0.01000001	          0.22614381	          0.01229105	          0.61096474	          0.01452386	          0.01000000	          0.22649023	          0.37287771	          0.02109398	          0.17688463	          0.14407591	          0.01000000	          0.00999999	          0.42262877	          0.06588767	          0.08182595	          0.07721212	          0.10365437	          0.01000002	          0.00999999	          0.01000002	          0.01750326	          0.51007784	
          0.64005629	         -6.02473994	          0.96058681	         -4.59159189	          0.71650545	          0.92733456	          0.00964001	        -10.70454499	         -1.04194290	         -7.07203261	        -12.39533175	          7.65982555	         35.54688649	         32.15502644	         -0.82887016	         -6.76054981	        -11.37358223	         -0.27772042	          0.19588250	         -4.83331972	         -0.40068920	          8.92012852	          0.15868328	          0.00999999	          0.00999999	          0.06462451	          0.01000002	          0.01000007	          0.21842476	          0.01019880	          0.60067903	          0.01205154	          0.00999999	          0.18793589	          0.34586186	          0.01750325	          0.14677442	          0.11955056	          0.01000000	          0.01829301	          0.35068671	          0.07279402	          0.06789711	          0.09743250	          0.08600978	          0.01000000	          0.01005129	          0.01205228	          0.01452376	          0.54765055	
          0.65236506	         -6.08111498	          0.98916332	         -4.57853621	          0.73374143	          0.92595190	          0.00865255	        -10.85396755	         -1.31084170	         -7.46082018	        -13.85527717	          6.49650803	         37.51416329	         32.04994345	         -0.72066939	         -6.66218126	        -12.96763472	         -0.58860206	          0.18522370	         -4.46319052	         -0.84515640	          9.34854254	          0.15861587	          0.00999999	          0.00999999	          0.05362379	          0.01000001	          0.01000003	          0.20555242	          0.01000000	          0.55338282	          0.01000008	          0.00999999	          0.15594447	          0.31916163	          0.01452376	          0.14962639	          0.09920005	          0.01000000	          0.05080888	          0.31321106	          0.07507997	          0.05633932	          0.09694643	          0.07136875	          0.01000000	          0.04655881	          0.01000068	          0.01205145	          0.59727500	
          0.66467384	         -6.11669912	          1.03997222	         -4.53703002	          0.75108182	          0.92495559	          0.00753819	        -10.76058486	         -1.64920778	         -7.86609211	        -15.76713760	          5.12993214	         39.52166160	         31.82973365	         -0.60210923	         -6.73030775	        -14.37979214	         -0.95044269	          0.15591373	         -4.10706807	         -1.30925187	          9.71743997	          0.18964359	          0.00999999	          0.00999999	          0.04449567	          0.01000001	          0.01000002	          0.18567238	          0.00999999	          0.45918314	          0.01000001	          0.00999999	          0.12939880	          0.26842748	          0.01205145	          0.14924253	          0.08231370	          0.01000000	          0.09869875	          0.28860754	          0.07498418	          0.04674895	          0.11281711	          0.05921999	          0.00999999	          0.11265647	          0.01000000	          0.00999999	          0.64501269	
          0.67698261	         -6.13367606	          1.12007284	         -4.47225720	          0.76835070	          0.92449706	          0.00631440	        -10.38478178	         -2.07104786	         -8.28856088	        -18.15617862	          3.50384626	         41.47611150	         31.51506027	         -0.45545547	         -6.88735124	        -15.70167913	         -0.96460742	          0.11969163	         -3.77840147	         -1.79915755	         10.02606406	          0.22156471	          0.00999999	          0.00999999	          0.03692139	          0.01000004	          0.03962722	          0.15719949	          0.00999999	          0.38101861	          0.01000000	          0.00999999	          0.10737186	          0.22273436	          0.00999999	          0.14282507	          0.06830184	          0.01000000	          0.14998602	          0.24837579	          0.07587139	          0.03879111	          0.10971291	          0.04913926	          0.00999999	          0.18108008	          0.00999999	          0.00999999	          0.63399425	
